<mxfile host="app.diagrams.net" modified="2024-06-02T15:13:56.120Z" agent="Mozilla/5.0 (X11; Linux x86_64) AppleWebKit/537.36 (KHTML, like Gecko) Chrome/125.0.0.0 Safari/537.36" etag="to6G9z9Hsu1IjuzpRhL_" version="24.4.13" type="device">
  <diagram id="C5RBs43oDa-KdzZeNtuy" name="Page-1">
    <mxGraphModel dx="1247" dy="1861" grid="1" gridSize="10" guides="1" tooltips="1" connect="1" arrows="1" fold="1" page="1" pageScale="1" pageWidth="827" pageHeight="1169" math="0" shadow="0">
      <root>
        <mxCell id="WIyWlLk6GJQsqaUBKTNV-0" />
        <mxCell id="WIyWlLk6GJQsqaUBKTNV-1" parent="WIyWlLk6GJQsqaUBKTNV-0" />
        <mxCell id="SRNSHd6ge_EsEEtdElFu-2" value="" style="edgeStyle=orthogonalEdgeStyle;rounded=0;orthogonalLoop=1;jettySize=auto;html=1;" parent="WIyWlLk6GJQsqaUBKTNV-1" source="S7_N-UKr1pL8a_zZHFVc-5" edge="1">
          <mxGeometry relative="1" as="geometry">
            <mxPoint x="410" y="-600" as="targetPoint" />
          </mxGeometry>
        </mxCell>
        <mxCell id="S7_N-UKr1pL8a_zZHFVc-5" value="Начало" style="strokeWidth=2;html=1;shape=mxgraph.flowchart.terminator;whiteSpace=wrap;" parent="WIyWlLk6GJQsqaUBKTNV-1" vertex="1">
          <mxGeometry x="360" y="-690" width="100" height="60" as="geometry" />
        </mxCell>
        <mxCell id="SRNSHd6ge_EsEEtdElFu-37" style="edgeStyle=orthogonalEdgeStyle;rounded=0;orthogonalLoop=1;jettySize=auto;html=1;entryX=0.5;entryY=0;entryDx=0;entryDy=0;" parent="WIyWlLk6GJQsqaUBKTNV-1" edge="1">
          <mxGeometry relative="1" as="geometry">
            <Array as="points">
              <mxPoint x="800" y="-390" />
              <mxPoint x="800" y="640" />
              <mxPoint x="410" y="640" />
            </Array>
            <mxPoint x="410" y="670" as="targetPoint" />
          </mxGeometry>
        </mxCell>
        <mxCell id="SRNSHd6ge_EsEEtdElFu-24" style="edgeStyle=orthogonalEdgeStyle;rounded=0;orthogonalLoop=1;jettySize=auto;html=1;entryX=0.5;entryY=0;entryDx=0;entryDy=0;" parent="WIyWlLk6GJQsqaUBKTNV-1" edge="1">
          <mxGeometry relative="1" as="geometry">
            <Array as="points">
              <mxPoint x="600" y="-30" />
              <mxPoint x="600" y="110" />
              <mxPoint x="410" y="110" />
            </Array>
            <mxPoint x="510" y="-30" as="sourcePoint" />
          </mxGeometry>
        </mxCell>
        <mxCell id="SRNSHd6ge_EsEEtdElFu-38" style="edgeStyle=orthogonalEdgeStyle;rounded=0;orthogonalLoop=1;jettySize=auto;html=1;entryX=0;entryY=0.5;entryDx=0;entryDy=0;entryPerimeter=0;exitX=0;exitY=0.5;exitDx=0;exitDy=0;" parent="WIyWlLk6GJQsqaUBKTNV-1" edge="1">
          <mxGeometry relative="1" as="geometry">
            <Array as="points">
              <mxPoint x="150" y="590" />
              <mxPoint x="150" y="-390" />
            </Array>
            <mxPoint x="310" y="-390" as="targetPoint" />
          </mxGeometry>
        </mxCell>
        <mxCell id="DR3ZvVdrjEOjAyI6lG6U-38" style="edgeStyle=orthogonalEdgeStyle;rounded=0;orthogonalLoop=1;jettySize=auto;html=1;entryX=0.5;entryY=0;entryDx=0;entryDy=0;" parent="WIyWlLk6GJQsqaUBKTNV-1" source="DR3ZvVdrjEOjAyI6lG6U-0" edge="1">
          <mxGeometry relative="1" as="geometry">
            <mxPoint x="410" y="-519.9999999999998" as="targetPoint" />
          </mxGeometry>
        </mxCell>
        <mxCell id="DR3ZvVdrjEOjAyI6lG6U-0" value="Ввод N, skills, all_skills" style="shape=parallelogram;perimeter=parallelogramPerimeter;whiteSpace=wrap;html=1;fixedSize=1;rounded=1;strokeColor=default;strokeWidth=2;align=center;verticalAlign=middle;arcSize=14;fontFamily=Helvetica;fontSize=12;fontColor=default;fillColor=default;" parent="WIyWlLk6GJQsqaUBKTNV-1" vertex="1">
          <mxGeometry x="310" y="-600" width="200" height="50" as="geometry" />
        </mxCell>
        <mxCell id="syByIhwMGtgeTSbXhUbm-22" style="edgeStyle=orthogonalEdgeStyle;rounded=0;orthogonalLoop=1;jettySize=auto;html=1;entryX=0.5;entryY=0;entryDx=0;entryDy=0;" edge="1" parent="WIyWlLk6GJQsqaUBKTNV-1" source="syByIhwMGtgeTSbXhUbm-5" target="syByIhwMGtgeTSbXhUbm-7">
          <mxGeometry relative="1" as="geometry" />
        </mxCell>
        <mxCell id="syByIhwMGtgeTSbXhUbm-5" value="M = all_skills.size" style="rounded=1;whiteSpace=wrap;html=1;absoluteArcSize=1;arcSize=14;strokeWidth=2;strokeColor=default;align=center;verticalAlign=middle;fillColor=default;" vertex="1" parent="WIyWlLk6GJQsqaUBKTNV-1">
          <mxGeometry x="310" y="-520" width="200" height="40" as="geometry" />
        </mxCell>
        <mxCell id="syByIhwMGtgeTSbXhUbm-23" style="edgeStyle=orthogonalEdgeStyle;rounded=0;orthogonalLoop=1;jettySize=auto;html=1;entryX=0.5;entryY=0;entryDx=0;entryDy=0;" edge="1" parent="WIyWlLk6GJQsqaUBKTNV-1" source="syByIhwMGtgeTSbXhUbm-7" target="syByIhwMGtgeTSbXhUbm-8">
          <mxGeometry relative="1" as="geometry" />
        </mxCell>
        <mxCell id="syByIhwMGtgeTSbXhUbm-7" value="best_subset[];&lt;br&gt;&amp;nbsp; &amp;nbsp; best_size = N + 1;" style="rounded=1;whiteSpace=wrap;html=1;absoluteArcSize=1;arcSize=14;strokeWidth=2;strokeColor=default;align=center;verticalAlign=middle;fillColor=default;" vertex="1" parent="WIyWlLk6GJQsqaUBKTNV-1">
          <mxGeometry x="310" y="-460" width="200" height="40" as="geometry" />
        </mxCell>
        <mxCell id="syByIhwMGtgeTSbXhUbm-24" style="edgeStyle=orthogonalEdgeStyle;rounded=0;orthogonalLoop=1;jettySize=auto;html=1;entryX=0.5;entryY=0;entryDx=0;entryDy=0;" edge="1" parent="WIyWlLk6GJQsqaUBKTNV-1" source="syByIhwMGtgeTSbXhUbm-8" target="syByIhwMGtgeTSbXhUbm-9">
          <mxGeometry relative="1" as="geometry" />
        </mxCell>
        <mxCell id="syByIhwMGtgeTSbXhUbm-8" value="i = 1; i &amp;lt; (2&lt;sup&gt;N&lt;/sup&gt;); ++i" style="shape=hexagon;perimeter=hexagonPerimeter2;whiteSpace=wrap;html=1;fixedSize=1;rounded=0;strokeColor=default;strokeWidth=2;align=center;verticalAlign=middle;arcSize=14;fontFamily=Helvetica;fontSize=12;fontColor=default;fillColor=default;" vertex="1" parent="WIyWlLk6GJQsqaUBKTNV-1">
          <mxGeometry x="310" y="-400" width="200" height="50" as="geometry" />
        </mxCell>
        <mxCell id="syByIhwMGtgeTSbXhUbm-25" style="edgeStyle=orthogonalEdgeStyle;rounded=0;orthogonalLoop=1;jettySize=auto;html=1;entryX=0.5;entryY=0;entryDx=0;entryDy=0;" edge="1" parent="WIyWlLk6GJQsqaUBKTNV-1" source="syByIhwMGtgeTSbXhUbm-9" target="syByIhwMGtgeTSbXhUbm-10">
          <mxGeometry relative="1" as="geometry" />
        </mxCell>
        <mxCell id="syByIhwMGtgeTSbXhUbm-9" value="subset[]" style="rounded=1;whiteSpace=wrap;html=1;absoluteArcSize=1;arcSize=14;strokeWidth=2;strokeColor=default;align=center;verticalAlign=middle;fillColor=default;" vertex="1" parent="WIyWlLk6GJQsqaUBKTNV-1">
          <mxGeometry x="310" y="-330" width="200" height="40" as="geometry" />
        </mxCell>
        <mxCell id="syByIhwMGtgeTSbXhUbm-29" style="edgeStyle=orthogonalEdgeStyle;rounded=0;orthogonalLoop=1;jettySize=auto;html=1;entryX=0.5;entryY=0;entryDx=0;entryDy=0;" edge="1" parent="WIyWlLk6GJQsqaUBKTNV-1" source="syByIhwMGtgeTSbXhUbm-10" target="syByIhwMGtgeTSbXhUbm-16">
          <mxGeometry relative="1" as="geometry">
            <Array as="points">
              <mxPoint x="580" y="-245" />
              <mxPoint x="580" y="-40" />
              <mxPoint x="410" y="-40" />
            </Array>
          </mxGeometry>
        </mxCell>
        <mxCell id="syByIhwMGtgeTSbXhUbm-10" value="j = 0; j &amp;lt; N; ++j" style="shape=hexagon;perimeter=hexagonPerimeter2;whiteSpace=wrap;html=1;fixedSize=1;rounded=0;strokeColor=default;strokeWidth=2;align=center;verticalAlign=middle;arcSize=14;fontFamily=Helvetica;fontSize=12;fontColor=default;fillColor=default;" vertex="1" parent="WIyWlLk6GJQsqaUBKTNV-1">
          <mxGeometry x="310" y="-270" width="200" height="50" as="geometry" />
        </mxCell>
        <mxCell id="syByIhwMGtgeTSbXhUbm-27" style="edgeStyle=orthogonalEdgeStyle;rounded=0;orthogonalLoop=1;jettySize=auto;html=1;entryX=0.5;entryY=0;entryDx=0;entryDy=0;" edge="1" parent="WIyWlLk6GJQsqaUBKTNV-1" source="syByIhwMGtgeTSbXhUbm-11" target="syByIhwMGtgeTSbXhUbm-12">
          <mxGeometry relative="1" as="geometry" />
        </mxCell>
        <mxCell id="syByIhwMGtgeTSbXhUbm-40" value="Да" style="edgeLabel;html=1;align=center;verticalAlign=middle;resizable=0;points=[];" vertex="1" connectable="0" parent="syByIhwMGtgeTSbXhUbm-27">
          <mxGeometry x="0.5754" y="1" relative="1" as="geometry">
            <mxPoint x="18" y="-1" as="offset" />
          </mxGeometry>
        </mxCell>
        <mxCell id="syByIhwMGtgeTSbXhUbm-38" style="edgeStyle=orthogonalEdgeStyle;rounded=0;orthogonalLoop=1;jettySize=auto;html=1;" edge="1" parent="WIyWlLk6GJQsqaUBKTNV-1" source="syByIhwMGtgeTSbXhUbm-11">
          <mxGeometry relative="1" as="geometry">
            <mxPoint x="240" y="-160" as="targetPoint" />
          </mxGeometry>
        </mxCell>
        <mxCell id="syByIhwMGtgeTSbXhUbm-39" value="Нет" style="edgeLabel;html=1;align=center;verticalAlign=middle;resizable=0;points=[];" vertex="1" connectable="0" parent="syByIhwMGtgeTSbXhUbm-38">
          <mxGeometry x="-0.4485" y="1" relative="1" as="geometry">
            <mxPoint y="-21" as="offset" />
          </mxGeometry>
        </mxCell>
        <UserObject label="&lt;div&gt;j-й чел. входит&lt;br&gt;в подмножество i?&lt;/div&gt;i &amp;amp; (1 &amp;lt;&amp;lt; j)" id="syByIhwMGtgeTSbXhUbm-11">
          <mxCell style="strokeWidth=2;html=1;shape=mxgraph.flowchart.decision;whiteSpace=wrap;" vertex="1" parent="WIyWlLk6GJQsqaUBKTNV-1">
            <mxGeometry x="310" y="-200" width="200" height="80" as="geometry" />
          </mxCell>
        </UserObject>
        <mxCell id="syByIhwMGtgeTSbXhUbm-28" style="edgeStyle=orthogonalEdgeStyle;rounded=0;orthogonalLoop=1;jettySize=auto;html=1;entryX=0;entryY=0.5;entryDx=0;entryDy=0;" edge="1" parent="WIyWlLk6GJQsqaUBKTNV-1" source="syByIhwMGtgeTSbXhUbm-12" target="syByIhwMGtgeTSbXhUbm-10">
          <mxGeometry relative="1" as="geometry">
            <Array as="points">
              <mxPoint x="240" y="-80" />
              <mxPoint x="240" y="-245" />
            </Array>
          </mxGeometry>
        </mxCell>
        <mxCell id="syByIhwMGtgeTSbXhUbm-12" value="subset.push_back(j)" style="rounded=1;whiteSpace=wrap;html=1;absoluteArcSize=1;arcSize=14;strokeWidth=2;strokeColor=default;align=center;verticalAlign=middle;fillColor=default;" vertex="1" parent="WIyWlLk6GJQsqaUBKTNV-1">
          <mxGeometry x="310" y="-100" width="200" height="40" as="geometry" />
        </mxCell>
        <mxCell id="syByIhwMGtgeTSbXhUbm-31" style="edgeStyle=orthogonalEdgeStyle;rounded=0;orthogonalLoop=1;jettySize=auto;html=1;entryX=0.5;entryY=0;entryDx=0;entryDy=0;" edge="1" parent="WIyWlLk6GJQsqaUBKTNV-1" source="syByIhwMGtgeTSbXhUbm-13" target="syByIhwMGtgeTSbXhUbm-17">
          <mxGeometry relative="1" as="geometry" />
        </mxCell>
        <mxCell id="syByIhwMGtgeTSbXhUbm-13" value="index : subset" style="shape=hexagon;perimeter=hexagonPerimeter2;whiteSpace=wrap;html=1;fixedSize=1;rounded=0;strokeColor=default;strokeWidth=2;align=center;verticalAlign=middle;arcSize=14;fontFamily=Helvetica;fontSize=12;fontColor=default;fillColor=default;" vertex="1" parent="WIyWlLk6GJQsqaUBKTNV-1">
          <mxGeometry x="310" y="40" width="200" height="50" as="geometry" />
        </mxCell>
        <mxCell id="syByIhwMGtgeTSbXhUbm-30" style="edgeStyle=orthogonalEdgeStyle;rounded=0;orthogonalLoop=1;jettySize=auto;html=1;entryX=0.5;entryY=0;entryDx=0;entryDy=0;" edge="1" parent="WIyWlLk6GJQsqaUBKTNV-1" source="syByIhwMGtgeTSbXhUbm-16" target="syByIhwMGtgeTSbXhUbm-13">
          <mxGeometry relative="1" as="geometry" />
        </mxCell>
        <mxCell id="syByIhwMGtgeTSbXhUbm-16" value="covered_skills{}" style="rounded=1;whiteSpace=wrap;html=1;absoluteArcSize=1;arcSize=14;strokeWidth=2;strokeColor=default;align=center;verticalAlign=middle;fillColor=default;" vertex="1" parent="WIyWlLk6GJQsqaUBKTNV-1">
          <mxGeometry x="310" y="-20" width="200" height="40" as="geometry" />
        </mxCell>
        <mxCell id="syByIhwMGtgeTSbXhUbm-32" style="edgeStyle=orthogonalEdgeStyle;rounded=0;orthogonalLoop=1;jettySize=auto;html=1;entryX=0;entryY=0.5;entryDx=0;entryDy=0;" edge="1" parent="WIyWlLk6GJQsqaUBKTNV-1" source="syByIhwMGtgeTSbXhUbm-17" target="syByIhwMGtgeTSbXhUbm-13">
          <mxGeometry relative="1" as="geometry">
            <Array as="points">
              <mxPoint x="240" y="130" />
              <mxPoint x="240" y="65" />
            </Array>
          </mxGeometry>
        </mxCell>
        <mxCell id="syByIhwMGtgeTSbXhUbm-17" value="covered_skills.insert(skills[index])" style="rounded=1;whiteSpace=wrap;html=1;absoluteArcSize=1;arcSize=14;strokeWidth=2;strokeColor=default;align=center;verticalAlign=middle;fillColor=default;" vertex="1" parent="WIyWlLk6GJQsqaUBKTNV-1">
          <mxGeometry x="310" y="110" width="200" height="40" as="geometry" />
        </mxCell>
        <mxCell id="syByIhwMGtgeTSbXhUbm-35" style="edgeStyle=orthogonalEdgeStyle;rounded=0;orthogonalLoop=1;jettySize=auto;html=1;entryX=0.5;entryY=0;entryDx=0;entryDy=0;" edge="1" parent="WIyWlLk6GJQsqaUBKTNV-1" source="syByIhwMGtgeTSbXhUbm-18" target="syByIhwMGtgeTSbXhUbm-19">
          <mxGeometry relative="1" as="geometry" />
        </mxCell>
        <mxCell id="syByIhwMGtgeTSbXhUbm-43" value="Да" style="edgeLabel;html=1;align=center;verticalAlign=middle;resizable=0;points=[];" vertex="1" connectable="0" parent="syByIhwMGtgeTSbXhUbm-35">
          <mxGeometry x="0.1323" y="-1" relative="1" as="geometry">
            <mxPoint x="22" y="-3" as="offset" />
          </mxGeometry>
        </mxCell>
        <mxCell id="syByIhwMGtgeTSbXhUbm-41" style="edgeStyle=orthogonalEdgeStyle;rounded=0;orthogonalLoop=1;jettySize=auto;html=1;" edge="1" parent="WIyWlLk6GJQsqaUBKTNV-1" source="syByIhwMGtgeTSbXhUbm-18">
          <mxGeometry relative="1" as="geometry">
            <mxPoint x="200" y="219.99999999999977" as="targetPoint" />
          </mxGeometry>
        </mxCell>
        <mxCell id="syByIhwMGtgeTSbXhUbm-42" value="Нет" style="edgeLabel;html=1;align=center;verticalAlign=middle;resizable=0;points=[];" vertex="1" connectable="0" parent="syByIhwMGtgeTSbXhUbm-41">
          <mxGeometry x="-0.7001" relative="1" as="geometry">
            <mxPoint x="1" y="-19" as="offset" />
          </mxGeometry>
        </mxCell>
        <UserObject label="covered_skills.size == M И subset.size &amp;lt; best_size" id="syByIhwMGtgeTSbXhUbm-18">
          <mxCell style="strokeWidth=2;html=1;shape=mxgraph.flowchart.decision;whiteSpace=wrap;" vertex="1" parent="WIyWlLk6GJQsqaUBKTNV-1">
            <mxGeometry x="310" y="180" width="200" height="80" as="geometry" />
          </mxCell>
        </UserObject>
        <mxCell id="syByIhwMGtgeTSbXhUbm-36" style="edgeStyle=orthogonalEdgeStyle;rounded=0;orthogonalLoop=1;jettySize=auto;html=1;entryX=0;entryY=0.5;entryDx=0;entryDy=0;" edge="1" parent="WIyWlLk6GJQsqaUBKTNV-1" source="syByIhwMGtgeTSbXhUbm-19" target="syByIhwMGtgeTSbXhUbm-8">
          <mxGeometry relative="1" as="geometry">
            <Array as="points">
              <mxPoint x="200" y="300" />
              <mxPoint x="200" y="-375" />
            </Array>
          </mxGeometry>
        </mxCell>
        <UserObject label="best_size = subset.size;&lt;div&gt;best_subset = subset;&lt;/div&gt;" id="syByIhwMGtgeTSbXhUbm-19">
          <mxCell style="rounded=1;whiteSpace=wrap;html=1;absoluteArcSize=1;arcSize=14;strokeWidth=2;strokeColor=default;align=center;verticalAlign=middle;fillColor=default;" vertex="1" parent="WIyWlLk6GJQsqaUBKTNV-1">
            <mxGeometry x="310" y="280" width="200" height="40" as="geometry" />
          </mxCell>
        </UserObject>
        <mxCell id="syByIhwMGtgeTSbXhUbm-20" value="Конец (возврат best_subset)" style="strokeWidth=2;html=1;shape=mxgraph.flowchart.terminator;whiteSpace=wrap;" vertex="1" parent="WIyWlLk6GJQsqaUBKTNV-1">
          <mxGeometry x="360" y="360" width="100" height="60" as="geometry" />
        </mxCell>
        <mxCell id="syByIhwMGtgeTSbXhUbm-26" style="edgeStyle=orthogonalEdgeStyle;rounded=0;orthogonalLoop=1;jettySize=auto;html=1;entryX=0.5;entryY=0;entryDx=0;entryDy=0;entryPerimeter=0;" edge="1" parent="WIyWlLk6GJQsqaUBKTNV-1" source="syByIhwMGtgeTSbXhUbm-10" target="syByIhwMGtgeTSbXhUbm-11">
          <mxGeometry relative="1" as="geometry" />
        </mxCell>
        <mxCell id="syByIhwMGtgeTSbXhUbm-34" style="edgeStyle=orthogonalEdgeStyle;rounded=0;orthogonalLoop=1;jettySize=auto;html=1;entryX=0.5;entryY=0;entryDx=0;entryDy=0;entryPerimeter=0;" edge="1" parent="WIyWlLk6GJQsqaUBKTNV-1" source="syByIhwMGtgeTSbXhUbm-13" target="syByIhwMGtgeTSbXhUbm-18">
          <mxGeometry relative="1" as="geometry">
            <Array as="points">
              <mxPoint x="580" y="65" />
              <mxPoint x="580" y="165" />
              <mxPoint x="410" y="165" />
            </Array>
          </mxGeometry>
        </mxCell>
        <mxCell id="syByIhwMGtgeTSbXhUbm-37" style="edgeStyle=orthogonalEdgeStyle;rounded=0;orthogonalLoop=1;jettySize=auto;html=1;entryX=0.5;entryY=0;entryDx=0;entryDy=0;entryPerimeter=0;" edge="1" parent="WIyWlLk6GJQsqaUBKTNV-1" source="syByIhwMGtgeTSbXhUbm-8" target="syByIhwMGtgeTSbXhUbm-20">
          <mxGeometry relative="1" as="geometry">
            <Array as="points">
              <mxPoint x="620" y="-375" />
              <mxPoint x="620" y="340" />
              <mxPoint x="410" y="340" />
            </Array>
          </mxGeometry>
        </mxCell>
      </root>
    </mxGraphModel>
  </diagram>
</mxfile>
